<?xml version="1.0" standalone="no"?>
<!DOCTYPE svg PUBLIC "-//W3C//DTD SVG 20010904//EN"
 "http://www.w3.org/TR/2001/REC-SVG-20010904/DTD/svg10.dtd">
<svg version="1.0" xmlns="http://www.w3.org/2000/svg"
 width="64.000000pt" height="64.000000pt" viewBox="0 0 64.000000 64.000000"
 preserveAspectRatio="xMidYMid meet">

<g transform="translate(0.000000,64.000000) scale(0.100000,-0.100000)"
fill="#000000" stroke="none">
<path d="M112 578 c-7 -7 -12 -25 -12 -40 0 -27 -2 -28 -45 -28 l-45 0 0 -235
0 -235 290 0 c277 0 291 1 310 20 19 19 20 33 20 240 0 207 -1 221 -20 240
-27 27 -56 25 -84 -5 -23 -25 -25 -25 -185 -25 l-161 0 0 28 c0 31 -16 52 -40
52 -9 0 -21 -5 -28 -12z m48 -28 c0 -13 -7 -20 -20 -20 -13 0 -20 7 -20 20 0
13 7 20 20 20 13 0 20 -7 20 -20z m438 -22 c8 -8 12 -65 12 -193 l0 -180 -40
0 -40 0 0 180 c0 185 4 205 40 205 9 0 21 -5 28 -12z m-458 -178 c5 0 11 37
13 83 3 78 3 77 5 -25 2 -102 1 -108 -18 -108 -19 0 -20 6 -18 108 2 102 2
103 5 25 2 -46 8 -83 13 -83z m-40 130 c0 -5 -11 -10 -25 -10 l-25 0 0 -190 0
-190 190 0 190 0 0 190 0 190 -125 0 c-77 0 -125 4 -125 10 0 6 62 10 165 10
l165 0 0 -200 c0 -110 3 -200 8 -200 4 0 12 10 17 23 12 27 53 30 69 5 8 -13
8 -23 0 -35 -10 -16 -37 -18 -293 -21 l-281 -2 0 215 0 215 35 0 c19 0 35 -4
35 -10z m0 -122 c0 -87 20 -178 40 -178 20 0 40 91 40 178 0 85 1 92 20 92 16
0 20 -7 20 -35 l0 -35 55 0 55 0 0 -45 0 -45 -50 0 -50 0 0 -90 0 -90 -80 0
-80 0 0 170 c0 144 2 170 15 170 12 0 15 -17 15 -92z m310 12 l0 -80 -30 0
c-30 0 -30 1 -30 55 l0 55 -55 0 c-52 0 -55 1 -55 25 0 25 1 25 85 25 l85 0 0
-80z m-257 -97 c-7 -2 -19 -2 -25 0 -7 3 -2 5 12 5 14 0 19 -2 13 -5z m257
-83 l0 -80 -80 0 -80 0 0 80 0 80 80 0 80 0 0 -80z m-260 50 c0 -5 -4 -10 -10
-10 -5 0 -10 5 -10 10 0 6 5 10 10 10 6 0 10 -4 10 -10z"/>
<path d="M130 325 c0 -8 5 -15 10 -15 6 0 10 7 10 15 0 8 -4 15 -10 15 -5 0
-10 -7 -10 -15z"/>
</g>
</svg>
